<svg id="Livello_1" data-name="Livello 1" xmlns="http://www.w3.org/2000/svg" viewBox="0 0 2976.68 1401.63"><defs><style>.cls-1{fill:#66bb6a;}.cls-2{fill:#ef5350;}.cls-3{fill:none;stroke:#ff867c;stroke-miterlimit:10;stroke-width:15px;}</style></defs><title>Tavola disegno 1</title><path class="cls-1" d="M153.95,12c-58.42,49.2-2.35,178.24-2.35,178.24C87.79,166.81,0,173.7,0,173.7c39.4,85.1,123.89,116.1,123.89,116.1a515.75,515.75,0,0,1,116.36-91.44l-1.74.81a515.75,515.75,0,0,1,145-29.59S414.51,85.1,375.1,0c0,0-62,62.49-85.45,126.3,0,0-62.15-126.24-137.45-113.51"/><path class="cls-2" d="M568.56,339.6q-10.83,0-10.83,11.82v10.05a10.66,10.66,0,0,0,3.2,7,9.57,9.57,0,0,0,7,2.82,8.88,8.88,0,0,0,7.79-4.2q2.82-4.2,2.82-11.71t-2.71-11.6A8.26,8.26,0,0,0,568.56,339.6Z"/><path class="cls-2" d="M708.44,313.06S603.31,198.5,431.79,200.56C260.27,198.5,142.74,313.06,142.74,313.06c-53.66,329.61,205,499.26,282.85,542.32C503.46,812.32,762.1,642.67,708.44,313.06ZM493.67,647.37q-27.74,19.88-69.81,19.88-49,0-105.87-36.06L347.11,591q25.42,17.58,68,17.57,45.31,0,45.31-34.67,0-20.81-52.24-39.76-79.52-28.66-79.52-90.15,0-37.45,27.74-59.64,25.89-20.8,69.81-20.8,49.46,0,93.39,30.51-8.32,12.48-27.74,40.22Q453,418.05,425.25,418.05q-35.14,0-35.14,26.35,0,11.1,9.48,18.72t37.22,18.72q48.08,18.5,69.58,41.15t21.5,53.63Q527.88,622.87,493.67,647.37Zm92.46-271.2q-6.3,5.53-15.8,5.52-9.06,0-14.25-6.3l-1.11,5H542.71V317.61l15-8.51v26.84a14.82,14.82,0,0,1,6.74-5.74,16.83,16.83,0,0,1,7-1.44q11.16,0,17.34,7.4,5.63,6.85,5.63,18.12Q594.41,368.87,586.13,376.16Z"/><path class="cls-3" d="M431.79,200.56c171.52-2.07,276.66,112.49,276.66,112.49,53.66,329.61-205,499.26-282.85,542.32C347.72,812.32,89.08,642.67,142.74,313.06,142.74,313.06,260.27,198.5,431.79,200.56Z"/><path class="cls-1" d="M148.79,1387.34l16.85-54.21q36.8,17.33,82.38,4.19,15-4.32,22.64-15t4.19-22.64q-6.91-24-47.79-19.35-45.85,5.42-76.57-11.05t-40.92-51.85q-10-34.77,11.51-66t64.1-43.47q58.15-16.76,111.78,4.8l-17.54,51.81q-35.08-11.32-73.46-.26-25.18,7.26-18.79,29.44,6.05,21,43.84,19.19,52.62-2.16,74.34,7.8,32,14.16,44.79,58.53,11.06,38.38-9.87,69.41t-67.71,44.52Q205.42,1412.58,148.79,1387.34Z"/><path class="cls-2" d="M573.74,1225.91l38.91,33.6q-35.21,49.11-89.77,64.84-72.56,20.91-95.71-59.44l-39.4-136.72-37.18,10.71-18.83-65.36,37.78-10.89-13.48-46.77q29.84-29.38,69.53-67.45L451.69,1039l76.75-22.12,18.83,65.36-77.35,22.29,37.15,128.92q4.84,16.8,10,21.15t15.35,1.42Q549.19,1251.16,573.74,1225.91Z"/><path class="cls-2" d="M666.35,977.12l14.19,19.94q2.12-12.94,16.31-26.78t31-18.67q55.76-16.07,98.47,30.72-8.64,8.34-29,27.84-19.17,19.16-28.82,28.44-26.53-17.68-48.71-11.29-17.4,5-19.23,25.67l55.64,193.08-80.35,23.16L597.4,997Z"/><path class="cls-2" d="M1143.56,1134.43l-66,19L1064.35,1130a17.82,17.82,0,0,0-2.74,4q-26.31,39.41-66.49,51-90.55,26.09-116.12-62.65-12.61-43.76,17.65-78.47,32.15-37.18,108.9-59.31l7.79-2.25-.17-.6q-6.91-24-18.93-29.62t-39,2.15q-39.58,11.41-64.7,45.92Q872.34,982,856.87,964.42q29.22-38.29,51.43-54.76t58.78-27Q1063,855,1097.94,976.13Zm-119-102.07-4.2,1.21q-31.79,9.16-48.88,26.43t-11.92,35.26q9.85,34.18,38,26.06,19.18-5.53,29.7-20.9a43.34,43.34,0,0,0,7.29-33.27Z"/><path class="cls-2" d="M1340.23,1077.75l-70.76,20.39L1096.88,853l81.55-23.5L1275,988.75l-13.79-183.06L1343.32,782q21,41.36,66.38,128.94l13.6,24.66,4.56,9.08L1426.67,758l83.95-24.19-2.82,39.78-1.48,26.4q-10.37,155.61-16.18,234.56l-71.36,20.56q-11.62-20-34.77-62.07-31.84-56.41-52.15-90.83.93,30.27,4.13,81.93Q1338.88,1048.27,1340.23,1077.75Z"/><path class="cls-1" d="M1628.64,994.63,1530.49,654l68.24-69.67,42,145.71q6.72-24,27.59-41.72a95.06,95.06,0,0,1,35.53-18.68q60.56-17.45,105.72,13,41.3,28.37,58.92,89.53,22.81,79.15-10.75,131.68-25.54,39.85-77.11,54.69-49.18,14.17-87.21-11.89l1.78,28.71Zm52-126q8.37,22.28,28.36,33.07t42.18,4.4q27-7.78,35.71-35t-3-68Q1772.29,763,1751,744.4t-45.84-11.46q-58.77,16.94-40.27,81.1Z"/><path class="cls-2" d="M2194.24,712.79l-185.88,53.57q8.89,24.08,33,35.63t48.7,4.48q39-11.23,75.67-48.43l32.83,37.29q-14.18,22.93-42.16,43t-56.76,28.37q-70.16,20.22-120.36-7.53-48.49-26.28-67.5-92.25-18.49-64.15,12-118.4,27.91-49.6,87.28-66.72,65.35-18.83,114.2,13.2,43.1,27.85,60.38,87.81Zm-208-5,109.13-31.45q-18.21-51.89-69.17-37.21Q1977.06,653.28,1986.28,707.78Z"/><path class="cls-2" d="M2275.73,513.31l14.19,19.94q2.12-12.94,16.31-26.78t31-18.67q55.76-16.07,98.47,30.72-8.64,8.34-29,27.84-19.17,19.16-28.82,28.44-26.53-17.68-48.71-11.29-17.4,5-19.23,25.67l55.64,193.08-80.35,23.16-78.45-272.23Z"/><path class="cls-2" d="M2532.36,439.35l14.19,19.94q2.12-12.94,16.31-26.78t31-18.67q55.76-16.07,98.47,30.72-8.64,8.34-29,27.84-19.17,19.16-28.82,28.44-26.53-17.68-48.71-11.29-17.4,5-19.23,25.67l55.64,193.08-80.35,23.16-78.45-272.23Z"/><path class="cls-2" d="M2976.68,311.3,2953,655.17q-5.82,83.5-58,98.53-41.37,11.92-95.69-12,6.54-24.63,10.52-44.6,27.1,8.41,44.5,3.42,23.39-6.74,24.45-66.15l-15.59,4.49-172-245.27,80.35-23.16q12.47,18.49,39.65,58.71l2.58,4.45q44.71,65,66.06,98.51l15.83-197.44Z"/></svg>