<svg id="Livello_1" data-name="Livello 1" xmlns="http://www.w3.org/2000/svg" viewBox="0 0 723.45 863.57"><defs><style>.cls-1{fill:#66bb6a;}.cls-2{fill:#ef5350;}.cls-3{fill:none;stroke:#ff867c;stroke-miterlimit:10;stroke-width:15px;}</style></defs><title>aaaaaTavola disegno 1</title><path class="cls-1" d="M153.95,12c-58.42,49.2-2.35,178.24-2.35,178.24C87.79,166.81,0,173.7,0,173.7c39.4,85.1,123.89,116.1,123.89,116.1a515.75,515.75,0,0,1,116.36-91.44l-1.74.81a515.75,515.75,0,0,1,145-29.59S414.51,85.1,375.1,0c0,0-62,62.49-85.45,126.3,0,0-62.15-126.24-137.45-113.51"/><path class="cls-2" d="M568.56,339.6q-10.83,0-10.83,11.82v10.05a10.66,10.66,0,0,0,3.2,7,9.57,9.57,0,0,0,7,2.82,8.88,8.88,0,0,0,7.79-4.2q2.82-4.2,2.82-11.71t-2.71-11.6A8.26,8.26,0,0,0,568.56,339.6Z"/><path class="cls-2" d="M708.44,313.06S603.31,198.5,431.79,200.56C260.27,198.5,142.74,313.06,142.74,313.06c-53.66,329.61,205,499.26,282.85,542.32C503.46,812.32,762.1,642.67,708.44,313.06ZM493.67,647.37q-27.74,19.88-69.81,19.88-49,0-105.87-36.06L347.11,591q25.42,17.58,68,17.57,45.31,0,45.31-34.67,0-20.81-52.24-39.76-79.52-28.66-79.52-90.15,0-37.45,27.74-59.64,25.89-20.8,69.81-20.8,49.46,0,93.39,30.51-8.32,12.48-27.74,40.22Q453,418.05,425.25,418.05q-35.14,0-35.14,26.35,0,11.1,9.48,18.72t37.22,18.72q48.08,18.5,69.58,41.15t21.5,53.63Q527.88,622.87,493.67,647.37Zm92.46-271.2q-6.3,5.53-15.8,5.52-9.06,0-14.25-6.3l-1.11,5H542.71V317.61l15-8.51v26.84a14.82,14.82,0,0,1,6.74-5.74,16.83,16.83,0,0,1,7-1.44q11.16,0,17.34,7.4,5.63,6.85,5.63,18.12Q594.41,368.87,586.13,376.16Z"/><path class="cls-3" d="M431.79,200.56c171.52-2.07,276.66,112.49,276.66,112.49,53.66,329.61-205,499.26-282.85,542.32C347.72,812.32,89.08,642.67,142.74,313.06,142.74,313.06,260.27,198.5,431.79,200.56Z"/></svg>