<?xml version="1.0" encoding="utf-8"?>
<!-- Generator: Adobe Illustrator 21.0.0, SVG Export Plug-In . SVG Version: 6.00 Build 0)  -->
<svg version="1.1" id="Livello_1" xmlns="http://www.w3.org/2000/svg" xmlns:xlink="http://www.w3.org/1999/xlink" x="0px" y="0px"
	 viewBox="0 0 2976.7 1401.6" style="enable-background:new 0 0 2976.7 1401.6;" xml:space="preserve">
<style type="text/css">
	.st0{fill:#FFFFFF;}
	.st1{fill:none;stroke:#FFFFFF;stroke-width:15;stroke-miterlimit:10;}
</style>
<circle class="st0" cx="-340.5" cy="425.6" r="0"/>
<path class="st0" d="M153.9,12c-58.4,49.2-2.3,178.2-2.3,178.2C87.8,166.8,0,173.7,0,173.7c39.4,85.1,123.9,116.1,123.9,116.1
	c36.5-38.5,76.5-68.3,116.4-91.4l-1.7,0.8c43.4-15.4,92-26.7,145-29.6c0,0,31-84.5-8.4-169.6c0,0-62,62.5-85.5,126.3
	c0,0-62.1-126.2-137.4-113.5"/>
<g>
	<path class="st0" d="M568.6,339.6c-7.2,0-10.8,3.9-10.8,11.8v10.1c0.2,2.8,1.3,5.1,3.2,7c1.9,1.9,4.2,2.8,7,2.8
		c3.3,0,5.9-1.4,7.8-4.2c1.9-2.8,2.8-6.7,2.8-11.7c0-4.9-0.9-8.8-2.7-11.6C574,341,571.6,339.6,568.6,339.6z"/>
	<path class="st0" d="M708.4,313.1c0,0-105.1-114.6-276.7-112.5c-171.5-2.1-289.1,112.5-289.1,112.5
		c-53.7,329.6,205,499.3,282.9,542.3C503.5,812.3,762.1,642.7,708.4,313.1z M493.7,647.4c-18.5,13.3-41.8,19.9-69.8,19.9
		c-32.7,0-68-12-105.9-36.1l29.1-40.2c16.9,11.7,39.6,17.6,68,17.6c30.2,0,45.3-11.6,45.3-34.7c0-13.9-17.4-27.1-52.2-39.8
		c-53-19.1-79.5-49.2-79.5-90.2c0-25,9.2-44.8,27.7-59.6c17.3-13.9,40.5-20.8,69.8-20.8c33,0,64.1,10.2,93.4,30.5
		c-5.5,8.3-14.8,21.7-27.7,40.2c-25.9-10.8-48.1-16.2-66.6-16.2c-23.4,0-35.1,8.8-35.1,26.4c0,7.4,3.2,13.6,9.5,18.7
		c6.3,5.1,18.7,11.3,37.2,18.7c32.1,12.3,55.2,26,69.6,41.1c14.3,15.1,21.5,33,21.5,53.6C527.9,607.5,516.5,631,493.7,647.4z
		 M586.1,376.2c-4.2,3.7-9.5,5.5-15.8,5.5c-6,0-10.8-2.1-14.3-6.3l-1.1,5h-12.3v-62.7l15-8.5v26.8c1.5-2.5,3.8-4.4,6.7-5.7
		c2.1-1,4.5-1.4,7-1.4c7.4,0,13.2,2.5,17.3,7.4c3.8,4.6,5.6,10.6,5.6,18.1C594.4,364,591.7,371.3,586.1,376.2z"/>
</g>
<path class="st1" d="M431.8,200.6c171.5-2.1,276.7,112.5,276.7,112.5c53.7,329.6-205,499.3-282.9,542.3
	c-77.9-43.1-336.5-212.7-282.9-542.3C142.7,313.1,260.3,198.5,431.8,200.6z"/>
<g>
	<path class="st0" d="M148.8,1387.3l16.8-54.2c24.5,11.6,52,12.9,82.4,4.2c10-2.9,17.5-7.9,22.6-15c5.1-7.1,6.5-14.6,4.2-22.6
		c-4.6-16-20.5-22.4-47.8-19.3c-30.6,3.6-56.1-0.1-76.6-11.1s-34.1-28.3-40.9-51.9c-6.7-23.2-2.8-45.2,11.5-66
		c14.4-20.8,35.7-35.3,64.1-43.5c38.8-11.2,76-9.6,111.8,4.8l-17.5,51.8c-23.4-7.5-47.9-7.6-73.5-0.3c-16.8,4.8-23.1,14.7-18.8,29.4
		c4,14,18.6,20.4,43.8,19.2c35.1-1.4,59.9,1.2,74.3,7.8c21.3,9.4,36.3,28.9,44.8,58.5c7.4,25.6,4.1,48.7-9.9,69.4
		c-14,20.7-36.5,35.5-67.7,44.5C227.8,1406.1,186.5,1404.2,148.8,1387.3z"/>
	<path class="st0" d="M573.7,1225.9l38.9,33.6c-23.5,32.7-53.4,54.4-89.8,64.8c-48.4,13.9-80.3-5.9-95.7-59.4l-39.4-136.7
		l-37.2,10.7l-18.8-65.4l37.8-10.9l-13.5-46.8c19.9-19.6,43.1-42.1,69.5-67.4l26.1,90.5l76.7-22.1l18.8,65.4l-77.4,22.3l37.2,128.9
		c3.2,11.2,6.6,18.2,10,21.1c3.4,2.9,8.5,3.4,15.3,1.4C543.6,1252.8,557.4,1242.7,573.7,1225.9z"/>
	<path class="st0" d="M666.4,977.1l14.2,19.9c1.4-8.6,6.8-17.6,16.3-26.8c9.5-9.2,19.8-15.4,31-18.7c37.2-10.7,70-0.5,98.5,30.7
		c-5.8,5.6-15.4,14.8-29,27.8c-12.8,12.8-22.4,22.3-28.8,28.4c-17.7-11.8-33.9-15.5-48.7-11.3c-11.6,3.3-18,11.9-19.2,25.7
		l55.6,193.1l-80.3,23.2L597.4,997L666.4,977.1z"/>
	<path class="st0" d="M1143.6,1134.4l-66,19l-13.3-23.5c-0.7,0.6-1.6,2-2.7,4c-17.5,26.3-39.7,43.3-66.5,51
		c-60.4,17.4-99.1-3.5-116.1-62.7c-8.4-29.2-2.5-55.3,17.6-78.5c21.4-24.8,57.7-44.6,108.9-59.3l7.8-2.2l-0.2-0.6
		c-4.6-16-10.9-25.9-18.9-29.6c-8-3.7-21-3-39,2.1c-26.4,7.6-48,22.9-64.7,45.9c-12.1-12.1-23.4-24-33.7-35.7
		c19.5-25.5,36.6-43.8,51.4-54.8c14.8-11,34.4-20,58.8-27c64-18.4,107.6,12.7,130.8,93.5L1143.6,1134.4z M1024.5,1032.4l-4.2,1.2
		c-21.2,6.1-37.5,14.9-48.9,26.4c-11.4,11.5-15.4,23.3-11.9,35.3c6.6,22.8,19.2,31.5,38,26.1c12.8-3.7,22.7-10.6,29.7-20.9
		c7-10.2,9.4-21.3,7.3-33.3L1024.5,1032.4z"/>
	<path class="st0" d="M1340.2,1077.7l-70.8,20.4L1096.9,853l81.5-23.5l96.5,159.2l-13.8-183.1l82.1-23.7
		c14,27.6,36.1,70.6,66.4,128.9l13.6,24.7l4.6,9.1l-1.2-186.7l83.9-24.2l-2.8,39.8l-1.5,26.4c-6.9,103.7-12.3,181.9-16.2,234.6
		l-71.4,20.6c-7.7-13.4-19.3-34-34.8-62.1c-21.2-37.6-38.6-67.9-52.1-90.8c0.6,20.2,2,47.5,4.1,81.9
		C1337.9,1026.9,1339.3,1058.1,1340.2,1077.7z"/>
	<path class="st0" d="M1628.6,994.6L1530.5,654l68.2-69.7l42,145.7c4.5-16,13.7-29.9,27.6-41.7c10.1-8.5,21.9-14.8,35.5-18.7
		c40.4-11.6,75.6-7.3,105.7,13c27.5,18.9,47.2,48.8,58.9,89.5c15.2,52.8,11.6,96.7-10.8,131.7c-17,26.6-42.7,44.8-77.1,54.7
		c-32.8,9.4-61.9,5.5-87.2-11.9l1.8,28.7L1628.6,994.6z M1680.6,868.6c5.6,14.9,15,25.9,28.4,33.1c13.3,7.2,27.4,8.7,42.2,4.4
		c18-5.2,29.9-16.8,35.7-35c5.8-18.1,4.8-40.8-3-68c-7.7-26.8-18.7-46.4-32.8-58.7c-14.2-12.4-29.5-16.2-45.8-11.5
		c-39.2,11.3-52.6,38.3-40.3,81.1L1680.6,868.6z"/>
	<path class="st0" d="M2194.2,712.8l-185.9,53.6c5.9,16.1,16.9,27.9,33,35.6c16.1,7.7,32.3,9.2,48.7,4.5c26-7.5,51.2-23.6,75.7-48.4
		l32.8,37.3c-9.5,15.3-23.5,29.6-42.2,43c-18.7,13.4-37.6,22.8-56.8,28.4c-46.8,13.5-86.9,11-120.4-7.5
		c-32.3-17.5-54.8-48.3-67.5-92.3c-12.3-42.8-8.3-82.2,12-118.4c18.6-33.1,47.7-55.3,87.3-66.7c43.6-12.6,81.6-8.2,114.2,13.2
		c28.7,18.6,48.9,47.8,60.4,87.8L2194.2,712.8z M1986.3,707.8l109.1-31.5c-12.1-34.6-35.2-47-69.2-37.2
		C1993.5,648.6,1980.1,671.5,1986.3,707.8z"/>
	<path class="st0" d="M2275.7,513.3l14.2,19.9c1.4-8.6,6.8-17.6,16.3-26.8c9.5-9.2,19.8-15.4,31-18.7c37.2-10.7,70-0.5,98.5,30.7
		c-5.8,5.6-15.4,14.8-29,27.8c-12.8,12.8-22.4,22.3-28.8,28.4c-17.7-11.8-33.9-15.5-48.7-11.3c-11.6,3.3-18,11.9-19.2,25.7
		l55.6,193.1l-80.3,23.2l-78.5-272.2L2275.7,513.3z"/>
	<path class="st0" d="M2532.4,439.4l14.2,19.9c1.4-8.6,6.8-17.6,16.3-26.8c9.5-9.2,19.8-15.4,31-18.7c37.2-10.7,70-0.5,98.5,30.7
		c-5.8,5.6-15.4,14.8-29,27.8c-12.8,12.8-22.4,22.3-28.8,28.4c-17.7-11.8-33.9-15.5-48.7-11.3c-11.6,3.3-18,11.9-19.2,25.7
		l55.6,193.1l-80.3,23.2l-78.5-272.2L2532.4,439.4z"/>
	<path class="st0" d="M2976.7,311.3L2953,655.2c-3.9,55.7-23.2,88.5-58,98.5c-27.6,7.9-59.5,3.9-95.7-12
		c4.4-16.4,7.9-31.3,10.5-44.6c18.1,5.6,32.9,6.8,44.5,3.4c15.6-4.5,23.7-26.5,24.4-66.1l-15.6,4.5l-172-245.3l80.3-23.2
		c8.3,12.3,21.5,31.9,39.7,58.7l2.6,4.4c29.8,43.4,51.8,76.2,66.1,98.5l15.8-197.4L2976.7,311.3z"/>
</g>
</svg>
